<?xml version="1.0" encoding="utf-8"?>
<!-- Generator: Adobe Illustrator 22.1.0, SVG Export Plug-In . SVG Version: 6.00 Build 0)  -->
<svg version="1.1" id="Layer_1" xmlns="http://www.w3.org/2000/svg" xmlns:xlink="http://www.w3.org/1999/xlink" x="0px" y="0px"
	 viewBox="0 0 512 512" style="enable-background:new 0 0 512 512;" xml:space="preserve">
<style type="text/css">
	.st0{fill:#CC3731;}
	.st1{fill:#FFFFFF;}
</style>
<g>
	<path class="st0" d="M498.3,506H13.7c-4.2,0-7.7-3.4-7.7-7.7V13.7C6,9.4,9.4,6,13.7,6h484.7c4.2,0,7.7,3.4,7.7,7.7v484.7
		C506,502.6,502.6,506,498.3,506z"/>
	<g>
		<path class="st1" d="M249.5,134.5c2.3,1.6,4.9,3.7,7.7,6.4c2.7,2.8,5.4,6.3,8.1,10.5c2.5,3.9,4.8,8.5,6.7,13.9
			c1.6,5.3,2.4,11.6,2.4,18.7c-0.2,13-3.1,23.5-8.6,31.3c-2.7,3.8-5.6,7.3-8.6,10.5c-3.4,3.2-6.9,6.5-10.7,9.8
			c-2.2,2.2-4.2,4.8-6,7.6c-2.2,3-3.3,6.4-3.3,10.3c0,3.8,1.1,6.9,3.3,9.4c1.9,2.4,3.7,4.4,5.5,6.2l12.4,10.1
			c7.7,6.3,14.4,13.2,20.2,20.8c5.5,7.7,8.3,17.8,8.5,30.2c0,17.7-7.8,33.3-23.4,46.9c-16.2,14.1-39.5,21.4-70,21.9
			c-25.5-0.2-44.6-5.7-57.2-16.3c-12.7-9.9-19.1-21.8-19.1-35.7c0-6.7,2.1-14.3,6.2-22.5c4-8.3,11.3-15.5,21.8-21.8
			c11.8-6.7,24.2-11.2,37.2-13.5c12.9-1.9,23.5-3,32-3.2c-2.6-3.5-5-7.2-7-11.1c-2.4-3.8-3.6-8.4-3.6-13.8c0-3.2,0.5-5.9,1.4-8
			c0.8-2.3,1.5-4.3,2.2-6.3c-4.1,0.5-8,0.7-11.7,0.7c-19.4-0.2-34.2-6.3-44.4-18.3c-10.7-11.2-16-24.1-16-38.9
			c0-17.9,7.5-34.1,22.6-48.7c10.4-8.5,21.1-14.1,32.3-16.7c11.1-2.2,31.1-3.2,31.1-3.2h71.6l-21.9,12.8H249.5L249.5,134.5
			L249.5,134.5z M263.6,344.4c0-9.3-3-17.3-9-24.2c-6.4-6.5-16.4-14.5-29.9-24c-2.3-0.2-5.1-0.4-8.2-0.4c-1.9-0.2-6.6,0-14.3,0.7
			c-7.5,1.1-15.3,2.8-23.2,5.2c-1.9,0.7-4.5,1.8-7.8,3.2c-3.4,1.5-6.8,3.7-10.3,6.6c-3.4,3-6.2,6.6-8.5,11c-2.7,4.6-4,10.2-4,16.7
			c0,12.8,5.8,23.4,17.4,31.7c11,8.3,26.1,12.6,45.3,12.8c17.2-0.2,30.3-4,39.3-11.4C259.1,365.1,263.6,355.8,263.6,344.4z
			 M212.8,237.6c9.6-0.4,17.6-3.8,24-10.3c3.1-4.6,5.1-9.4,5.9-14.2c0.5-4.9,0.8-9,0.8-12.3c0-14.4-3.7-28.9-11-43.4
			c-3.5-7-8-12.7-13.6-17.1c-5.7-4.1-12.3-6.3-19.8-6.6c-9.9,0.2-18.1,4.2-24.6,11.9c-5.5,8.1-8.2,17.1-7.9,27.1
			c0,13.2,3.8,26.9,11.6,41.1c3.7,6.6,8.5,12.3,14.5,16.9C198.4,235.3,205.2,237.6,212.8,237.6z"/>
		<polygon class="st1" points="393.3,161.2 355,161.2 355,122.8 336.8,122.8 336.8,161.2 298.5,161.2 298.5,179.3 336.8,179.3 
			336.8,217.7 355,217.7 355,179.3 393.3,179.3 		"/>
	</g>
</g>
</svg>
