<?xml version="1.0" encoding="utf-8"?>
<!-- Generator: Adobe Illustrator 22.1.0, SVG Export Plug-In . SVG Version: 6.00 Build 0)  -->
<svg version="1.1" id="Layer_1" xmlns="http://www.w3.org/2000/svg" xmlns:xlink="http://www.w3.org/1999/xlink" x="0px" y="0px"
	 viewBox="0 0 512 512" style="enable-background:new 0 0 512 512;" xml:space="preserve">
<style type="text/css">
	.st0{fill:url(#SVGID_1_);}
	.st1{fill:url(#SVGID_2_);}
	.st2{fill:url(#SVGID_3_);}
</style>
<g>
	<g>
		
			<linearGradient id="SVGID_1_" gradientUnits="userSpaceOnUse" x1="-129.3622" y1="-1213.1256" x2="-129.3622" y2="-1693.6261" gradientTransform="matrix(1 0 0 1 385.3622 1710.5552)">
			<stop  offset="0" style="stop-color:#E09B3D"/>
			<stop  offset="0.3" style="stop-color:#C74C4D"/>
			<stop  offset="0.6" style="stop-color:#C21975"/>
			<stop  offset="1" style="stop-color:#7024C4"/>
		</linearGradient>
		<path class="st0" d="M354.2,13.2H157.8c-79.8,0-144.7,64.9-144.7,144.7v196.3c0,79.8,64.9,144.7,144.7,144.7h196.3
			c79.8,0,144.7-64.9,144.7-144.7V157.8C498.8,78.1,433.9,13.2,354.2,13.2z M450,354.1c0,52.9-42.9,95.8-95.8,95.8H157.9
			c-52.9,0-95.8-42.9-95.8-95.8V157.9c0-52.9,42.9-95.8,95.8-95.8h196.3c52.9,0,95.8,42.9,95.8,95.8L450,354.1L450,354.1z"/>
		
			<linearGradient id="SVGID_2_" gradientUnits="userSpaceOnUse" x1="-129.3622" y1="-1213.1256" x2="-129.3622" y2="-1693.6261" gradientTransform="matrix(1 0 0 1 385.3622 1710.5552)">
			<stop  offset="0" style="stop-color:#E09B3D"/>
			<stop  offset="0.3" style="stop-color:#C74C4D"/>
			<stop  offset="0.6" style="stop-color:#C21975"/>
			<stop  offset="1" style="stop-color:#7024C4"/>
		</linearGradient>
		<path class="st1" d="M256,130.4c-69.3,0-125.6,56.4-125.6,125.6S186.7,381.6,256,381.6S381.6,325.3,381.6,256
			S325.3,130.4,256,130.4z M256,332.8c-42.4,0-76.8-34.4-76.8-76.8s34.4-76.8,76.8-76.8c42.4,0,76.8,34.4,76.8,76.8
			C332.8,298.4,298.4,332.8,256,332.8z"/>
		
			<linearGradient id="SVGID_3_" gradientUnits="userSpaceOnUse" x1="-3.5031" y1="-1213.1256" x2="-3.5031" y2="-1693.6261" gradientTransform="matrix(1 0 0 1 385.3622 1710.5552)">
			<stop  offset="0" style="stop-color:#E09B3D"/>
			<stop  offset="0.3" style="stop-color:#C74C4D"/>
			<stop  offset="0.6" style="stop-color:#C21975"/>
			<stop  offset="1" style="stop-color:#7024C4"/>
		</linearGradient>
		<circle class="st2" cx="381.9" cy="131.3" r="30.1"/>
	</g>
</g>
</svg>
